<?xml version="1.0" encoding="utf-8"?>
<!-- Generator: Adobe Illustrator 28.0.0, SVG Export Plug-In . SVG Version: 6.00 Build 0)  -->
<svg version="1.1" id="Layer_1" xmlns="http://www.w3.org/2000/svg" xmlns:xlink="http://www.w3.org/1999/xlink" x="0px" y="0px"
	 viewBox="10 10 182 170" style="enable-background:new 0 0 202 190.78;" xml:space="preserve">
<style type="text/css">
	.st0{fill:#FFFFFF;}
	.st1{fill:#010101;}
	.st2{fill:#FDFDFD;}
</style>
<g>
	<path class="st0" d="M142.78,172.87H59.22c-20.29,0-36.74-16.45-36.74-36.74V54.65c0-20.29,16.45-36.74,36.74-36.74h83.56
		c20.29,0,36.74,16.45,36.74,36.74v81.48C179.52,156.42,163.07,172.87,142.78,172.87z"/>
	<path d="M142.78,177.87H59.22c-23.02,0-41.74-18.72-41.74-41.74V54.65c0-23.02,18.72-41.74,41.74-41.74h83.56
		c23.02,0,41.74,18.72,41.74,41.74v81.48C184.52,159.15,165.79,177.87,142.78,177.87z M59.22,22.91c-17.5,0-31.74,14.24-31.74,31.74
		v81.48c0,17.5,14.24,31.74,31.74,31.74h83.56c17.5,0,31.74-14.24,31.74-31.74V54.65c0-17.5-14.24-31.74-31.74-31.74H59.22z"/>
</g>
<g>
	<g>
		<path class="st1" d="M54.66,124.71c-2.15,0-4.31-0.01-6.46,0.01c-0.39,0-0.65-0.11-0.89-0.41c-0.59-0.76-1.21-1.5-1.83-2.24
			c-0.21-0.25-0.24-0.48-0.18-0.79c0.77-3.86,1.53-7.73,2.31-11.59c0.07-0.37,0.04-0.66-0.13-0.99
			c-11.01-21.5-1.33-48.06,20.95-57.46c21.8-9.21,46.9,1.54,55.32,23.7c7.68,20.2-1.38,43.23-20.95,52.43
			c-13.93,6.55-27.62,5.54-40.75-2.52c-0.29-0.18-0.57-0.28-0.92-0.27c-1.09,0.03-2.17,0.03-3.26,0.04c-1.07,0.01-2.13,0-3.2,0
			C54.66,124.65,54.66,124.68,54.66,124.71z M53.36,89.73c-0.1,17.14,13.89,31.24,31.12,31.37c17.39,0.12,31.5-13.86,31.52-31.39
			c0.02-17.1-13.72-31.19-31.23-31.3C67.5,58.3,53.46,72.3,53.36,89.73z"/>
	</g>
	<g>
		<path class="st1" d="M135.49,88.15c1.25,1.07,2.41,2.07,3.58,3.07c1.76,1.51,3.5,3.04,5.28,4.53c0.42,0.35,0.56,0.66,0.45,1.24
			c-1.87,9.68-5.31,18.75-10.32,27.23c-0.21,0.36-0.43,0.51-0.87,0.51c-3.8-0.02-7.59-0.01-11.39-0.01c-0.15,0-0.32,0.07-0.5-0.09
			C129.54,113.74,134.14,101.63,135.49,88.15z"/>
	</g>
	<g>
		<path class="st1" d="M164.58,114.28c0.03,5.39-4.21,10.47-10.48,10.48c-6.19,0.01-10.34-4.92-10.51-10.14
			c-0.2-6.1,4.71-10.92,10.57-10.89C159.91,103.76,164.58,108.46,164.58,114.28z"/>
	</g>
	<g>
		<path class="st2" d="M53.36,89.73c0.1-17.44,14.14-31.43,31.4-31.32c17.51,0.11,31.24,14.2,31.23,31.3
			c-0.02,17.53-14.13,31.51-31.52,31.39C67.26,120.98,53.26,106.87,53.36,89.73z M77.04,82.6c-0.83,0.22-1.65,0.43-2.49,0.41
			c-3.22-0.09-5.59-1.54-7.02-4.45c-0.05-0.11-0.1-0.27-0.18-0.3c-0.17-0.05-0.23,0.14-0.3,0.25c-0.36,0.62-0.76,1.22-1.07,1.87
			c-3.02,6.47-3.03,12.93,0.32,19.27c2.59,4.92,6.61,8.27,11.9,9.98c5.63,1.82,11.12,1.31,16.39-1.42c0.72-0.37,0.72-0.37,0.31-1.09
			c-0.15-0.27-0.31-0.53-0.47-0.8c-1.4-2.41-2.81-4.82-4.21-7.22c-0.12-0.21-0.18-0.43-0.54-0.23c-1.99,1.13-4.13,1.5-6.4,1.22
			C77.13,99.35,72.9,92.96,74.62,87C75.1,85.36,75.9,83.91,77.04,82.6z M74.62,78.98c2.46,0,4.41-1.93,4.43-4.4
			c0.02-2.41-1.98-4.48-4.41-4.44c-2.62,0.04-4.41,2.03-4.42,4.41C70.21,77.02,72.16,78.98,74.62,78.98z"/>
	</g>
	<g>
		<path class="st1" d="M77.04,82.6c-1.13,1.31-1.94,2.76-2.41,4.4c-1.72,5.95,2.51,12.34,8.65,13.09c2.27,0.28,4.41-0.09,6.4-1.22
			c0.36-0.21,0.42,0.02,0.54,0.23c1.4,2.41,2.81,4.82,4.21,7.22c0.15,0.27,0.31,0.53,0.47,0.8c0.41,0.72,0.41,0.71-0.31,1.09
			c-5.27,2.73-10.75,3.24-16.39,1.42c-5.29-1.71-9.31-5.06-11.9-9.98c-3.34-6.34-3.33-12.8-0.32-19.27c0.3-0.65,0.7-1.25,1.07-1.87
			c0.07-0.12,0.13-0.3,0.3-0.25c0.08,0.03,0.13,0.19,0.18,0.3c1.43,2.91,3.8,4.36,7.02,4.45C75.39,83.03,76.2,82.81,77.04,82.6z"/>
	</g>
	<g>
		<path class="st1" d="M74.62,78.98c-2.45,0-4.41-1.97-4.4-4.42c0.01-2.39,1.81-4.37,4.42-4.41c2.43-0.04,4.44,2.03,4.41,4.44
			C79.03,77.05,77.08,78.99,74.62,78.98z"/>
	</g>
</g>
</svg>
